<svg width="20" height="20" viewBox="0 0 20 20" fill="none" xmlns="http://www.w3.org/2000/svg">
<path d="M9.66668 5.441V8.771M18.2567 14.17C18.9867 15.39 18.4067 16.97 17.0567 17.42C12.2754 19.01 7.10796 19.01 2.32668 17.42C0.88668 16.94 0.33668 15.48 1.12668 14.17L2.39668 12.05C2.74668 11.47 3.02668 10.44 3.02668 9.77V7.67C3.02537 6.79456 3.19666 5.92744 3.53077 5.11826C3.86488 4.30907 4.35524 3.5737 4.97381 2.9542C5.59238 2.33471 6.32702 1.84324 7.1357 1.50792C7.94438 1.1726 8.81124 0.999999 9.68668 1C13.3467 1 16.3467 4 16.3467 7.66V9.76C16.3467 9.94 16.3667 10.14 16.3967 10.35" stroke="#272727" stroke-opacity="0.5" stroke-width="1.5" stroke-miterlimit="10" stroke-linecap="round"/>
</svg>
