<svg width="24" height="24" viewBox="0 0 24 24" fill="none" xmlns="http://www.w3.org/2000/svg">
<path d="M12.0001 6.441V9.771M20.5901 15.17C21.3201 16.39 20.7401 17.97 19.3901 18.42C14.6088 20.01 9.44134 20.01 4.66005 18.42C3.22005 17.94 2.67005 16.48 3.46005 15.17L4.73005 13.05C5.08005 12.47 5.36005 11.44 5.36005 10.77V8.67C5.35874 7.79456 5.53004 6.92744 5.86414 6.11826C6.19825 5.30907 6.68862 4.5737 7.30718 3.9542C7.92575 3.33471 8.66039 2.84324 9.46907 2.50792C10.2778 2.1726 11.1446 2 12.0201 2C15.6801 2 18.6801 5 18.6801 8.66V10.76C18.6801 10.94 18.7001 11.14 18.7301 11.35" stroke="#272727" stroke-width="1.5" stroke-miterlimit="10" stroke-linecap="round"/>
<path d="M15.33 18.82C15.33 20.65 13.83 22.15 12 22.15C11.09 22.15 10.25 21.77 9.65004 21.17C9.05004 20.57 8.67004 19.73 8.67004 18.82" stroke="#272727" stroke-width="1.5" stroke-miterlimit="10"/>
<circle cx="19" cy="5" r="4" fill="#FA3636"/>
</svg>
