<svg width="19" height="22" viewBox="0 0 19 22" fill="none" xmlns="http://www.w3.org/2000/svg">
<path d="M17.8333 6.04C17.8333 2.01 16.8933 1 13.1133 1H5.55325C1.77325 1 0.833252 2.01 0.833252 6.04V17.3C0.833252 19.96 2.29325 20.59 4.06325 18.69L4.07325 18.68C4.89325 17.81 6.14325 17.88 6.85325 18.83L7.86325 20.18C8.67325 21.25 9.98325 21.25 10.7933 20.18L11.8033 18.83C12.5233 17.87 13.7733 17.8 14.5933 18.68C16.3733 20.58 17.8233 19.95 17.8233 17.29V10M5.33325 6H13.3333M6.33325 10H12.3333" stroke="#272727" stroke-opacity="0.5" stroke-width="1.5" stroke-linecap="round" stroke-linejoin="round"/>
</svg>
